<svg width="20.000000" height="20.000000" viewBox="0 0 20 20" fill="none" xmlns="http://www.w3.org/2000/svg" xmlns:xlink="http://www.w3.org/1999/xlink">
	<desc>
			Created with Pixso.
	</desc>
	<defs/>
	<path id="Vector" d="M8.75 0L7.5 2.96C7.25 3.04 7.03 3.16 6.8 3.29L3.84 2.04L2.04 3.84L3.29 6.8C3.16 7.05 3.06 7.25 2.96 7.5L0 8.75L0 11.24L2.96 12.49C3.06 12.74 3.16 12.94 3.29 13.19L2.04 16.15L3.84 17.95L6.8 16.7C7.03 16.8 7.25 16.93 7.5 17.03L8.75 20L11.24 20L12.49 17.03C12.71 16.93 12.96 16.83 13.19 16.7L16.15 17.95L17.95 16.15L16.7 13.19C16.8 12.96 16.93 12.71 17.03 12.49L20 11.24L20 8.75L17.03 7.5C16.95 7.28 16.83 7.03 16.7 6.8L17.95 3.84L16.15 2.04L13.19 3.29C12.96 3.19 12.71 3.06 12.49 2.96L11.24 0L8.75 0ZM10 6.23C12.06 6.23 13.74 7.9 13.74 9.97C13.74 12.04 12.06 13.71 10 13.71C7.93 13.71 6.25 12.04 6.25 9.97C6.25 7.9 7.93 6.23 10 6.23Z" fill="#000000" fill-opacity="1.000000" fill-rule="nonzero"/>
</svg>
