<svg width="20.000000" height="21.000000" viewBox="0 0 20 21" fill="none" xmlns="http://www.w3.org/2000/svg" xmlns:xlink="http://www.w3.org/1999/xlink">
	<desc>
			Created with Pixso.
	</desc>
	<defs/>
	<path id="Vector" d="M8.67 0.02C3.88 0.02 0 3.91 0 8.69C0 13.47 3.88 17.36 8.67 17.36C10.13 17.36 11.57 17.02 12.78 16.35C12.88 16.46 12.98 16.57 13.1 16.67L15.58 19.15C15.81 19.4 16.09 19.61 16.4 19.76C16.71 19.9 17.05 19.98 17.39 19.99C17.74 20 18.08 19.94 18.4 19.82C18.72 19.69 19.01 19.5 19.25 19.25C19.5 19.01 19.69 18.72 19.82 18.4C19.94 18.08 20 17.74 19.99 17.39C19.98 17.05 19.9 16.71 19.76 16.4C19.61 16.09 19.4 15.81 19.15 15.58L16.67 13.1C16.55 12.98 16.42 12.87 16.27 12.78C16.94 11.57 17.36 10.15 17.36 8.67C17.36 3.88 13.47 0 8.69 0L8.67 0.02ZM8.67 2.5C12.11 2.5 14.86 5.25 14.86 8.69C14.86 10.33 14.27 11.84 13.23 12.95C13.2 12.98 13.18 13 13.15 13.03C13.03 13.12 12.93 13.23 12.83 13.35C11.74 14.34 10.25 14.91 8.64 14.91C5.2 14.91 2.45 12.16 2.45 8.72C2.45 5.27 5.2 2.52 8.64 2.52L8.67 2.5Z" fill="#000000" fill-opacity="1.000000" fill-rule="nonzero"/>
</svg>
