<svg width="20.000000" height="20.000000" viewBox="0 0 20 20" fill="none" xmlns="http://www.w3.org/2000/svg" xmlns:xlink="http://www.w3.org/1999/xlink">
	<desc>
			Created with Pixso.
	</desc>
	<defs/>
	<path id="Vector" d="M13.75 0C12.47 0 11.37 0.87 10.7 2.19C11.82 3.54 12.5 5.39 12.5 7.51C12.5 8.23 12.42 8.88 12.27 9.53C12.75 9.81 13.22 10.01 13.75 10.01C15.82 10.01 17.5 7.76 17.5 5.01C17.5 2.27 15.82 0.02 13.75 0.02L13.75 0ZM6.25 2.49C4.17 2.49 2.5 4.74 2.5 7.49C2.5 10.23 4.17 12.48 6.25 12.48C8.32 12.48 10 10.23 10 7.49C10 4.74 8.32 2.49 6.25 2.49ZM18.12 10.38C17.04 11.66 15.57 12.43 13.9 12.48C14.57 13.43 15 14.58 15 15.83L15 17.47L20 17.47L20 13.33C20 12.03 19.22 10.91 18.12 10.36L18.12 10.38ZM1.87 12.88C0.77 13.43 0 14.55 0 15.85L0 20L12.5 20L12.5 15.85C12.5 14.55 11.72 13.43 10.62 12.88C9.5 14.2 7.97 14.98 6.25 14.98C4.52 14.98 3 14.18 1.87 12.88Z" fill="#000000" fill-opacity="1.000000" fill-rule="nonzero"/>
</svg>
